<svg width="163" height="132" viewBox="0 0 163 132" fill="none" xmlns="http://www.w3.org/2000/svg">
<path d="M152.296 98.4401C141.768 114.608 122 124.792 112.252 127.972C94.5 132.792 74.9999 132.368 59.5 125.792C44 119.216 31.9134 114.608 16.748 98.4401C1.5827 82.2721 -8.43511 63.2643 14.5 56.292C50 45.5 52.3305 17.5681 68.9999 7.79206C82.2861 2.57492e-05 98.34 -2.26521 119.02 3.50013C139.7 9.26546 153.048 22.4881 159.064 43.1681C165.08 63.8481 162.824 82.2721 152.296 98.4401Z" fill="#FF5E00"/>
<circle cx="130.5" cy="43.5" r="6.5" fill="white"/>
<circle cx="131.5" cy="41.5" r="2.5" fill="#FF5E00"/>
<circle cx="113.5" cy="43.5" r="6.5" fill="white"/>
<circle cx="114.5" cy="41.5" r="2.5" fill="#FF5E00"/>
<path d="M118.2 68C112.927 68 109.998 65.2047 108.698 62.2743C108.193 61.1372 109.141 60 110.385 60H125.928C127.06 60 127.983 60.9563 127.628 62.0314C126.63 65.0482 123.619 68 118.2 68Z" fill="white"/>
</svg>
