<svg width="24" height="24" viewBox="0 0 24 24" fill="none" xmlns="http://www.w3.org/2000/svg">
<path d="M19.2025 4.35963L19.4246 4.57538C23.5251 8.67588 23.5251 15.3241 19.4246 19.4246C15.3241 23.5251 8.67588 23.5251 4.57538 19.4246C0.474874 15.3241 0.474874 8.67588 4.57538 4.57538C8.60266 0.548097 15.0875 0.476181 19.2025 4.35963ZM19.2752 12.3803L18.685 12.4469C14.8858 12.8755 13.2752 14.3632 13.2752 18.7583V19.3803L13.8529 19.2423C16.7146 18.5587 18.8574 16.0591 19.2049 12.9993L19.2752 12.3803ZM4.63478 12.2765L4.70507 12.8955C5.05259 15.9553 7.19543 18.4549 10.0571 19.1385L10.6348 19.2765V18.6545C10.6348 14.2594 9.0242 12.7717 5.22505 12.3431L4.63478 12.2765ZM12.87 11.7322C12.3818 11.2441 11.5882 11.2441 11.1 11.7322C10.6118 12.2204 10.6118 13.0118 11.1 13.5C11.5882 13.9882 12.3818 13.9882 12.87 13.5C13.3582 13.0118 13.3582 12.2204 12.87 11.7322ZM13.613 4.82253C10.0454 4.0189 6.44479 5.96574 5.14846 9.34774C7.08306 9.80694 9.30641 10.0365 11.8185 10.0365H12.207C14.4841 10.0365 16.7013 9.81382 18.8587 9.36836C17.9854 7.07632 16.0186 5.36443 13.613 4.82253Z" fill="#C5CBCD"/>
</svg>
