<svg width="129" height="129" viewBox="0 0 129 129" fill="none" xmlns="http://www.w3.org/2000/svg">
<g clip-path="url(#clip0_854_2139)" filter="url(#filter0_d_854_2139)">
<path d="M95.0366 39.7135C92.8242 35.0887 90.5567 30.4005 84.9302 30.3518L35.7768 29.9265C30.1503 29.8779 26.9784 34.3095 25.5087 39.2516C22.7043 48.6748 23.0717 52.3843 19.5131 55.0055C17.4844 56.499 13.0701 57.9425 12.0455 61.64C11.031 65.3027 10.7109 71.4138 12.3356 75.7445C13.2595 78.209 17.0289 82.2748 21.2202 82.311L102.715 83.0161C106.907 83.0524 110.104 78.8863 111.281 76.6006C113.454 72.3796 113.484 67.8467 110.486 62.1426C108.757 58.8542 106.619 58.6653 103.609 57.4718C102.307 56.9564 101.325 55.941 100.932 54.7003C98.2666 46.2744 95.0366 39.7135 95.0366 39.7135Z" fill="#0081B7"/>
<path d="M48.7988 35.1378C48.2915 33.7593 41.7988 33.6165 39.3241 33.3968C37.3697 33.2235 34.6532 33.119 33.3501 33.9358C30.2792 35.8602 29.51 39.8085 28.738 42.3127C27.7268 45.5928 25.5141 51.7798 26.6169 53.2012C27.2461 54.0138 28.5207 54.0765 29.7194 54.0603C34.8778 53.9877 42.8895 53.9411 48.0493 53.8684C48.6117 53.8607 49.216 53.845 49.6617 53.6645C50.3364 53.3896 50.3716 52.8621 50.3477 52.4052C50.1389 48.5434 49.9301 44.683 49.7213 40.8213C49.6205 38.9588 49.5129 37.0726 48.8002 35.1392L48.7988 35.1378Z" fill="#87C4DE"/>
<path d="M53.0733 35.538C53.642 41.0857 53.9585 46.6577 54.023 52.2346C54.0315 53.0278 54.616 53.6949 55.3988 53.8008C61.5655 54.639 67.8111 54.8871 74.0228 54.5415C74.4003 54.521 74.7959 54.4909 75.1137 54.2856C75.5182 54.0223 75.865 53.524 75.78 53.0484C75.3207 50.4623 74.3759 48.006 73.343 45.9079C72.2554 43.7004 71.3092 42.0373 70.2006 39.8394C69.0921 37.6415 67.5395 35.9117 65.3695 34.7589C62.2862 33.1221 58.6166 33.776 54.6407 33.7849C53.7051 33.7866 52.9784 34.6043 53.0733 35.5366L53.0733 35.538Z" fill="#87C4DE"/>
<path d="M71.5079 35.9712C72.3781 38.2047 74.6627 41.5664 76.4788 45.1711C77.9719 48.1349 78.9987 51.2622 79.9558 54.0705C80.207 54.8086 80.8444 55.3071 81.5681 55.3371L100.094 55.9401C100.335 55.9492 100.593 55.9556 100.742 55.6133C100.841 55.3824 100.825 55.1197 100.759 54.8761C99.1767 49.0669 96.3694 42.7192 93.8875 37.5529C93.3815 36.5012 93.0258 35.2929 92.1353 34.6065C91.3871 34.0288 90.4377 33.8726 89.5269 33.7474C83.3784 32.9066 78.6386 33.9925 72.6687 34.061C71.7679 34.0714 71.1579 35.0716 71.5079 35.9726L71.5079 35.9712Z" fill="#87C4DE"/>
<path d="M107.568 71.4474C101.881 70.8201 96.4289 70.4084 90.8183 71.2592C90.4322 71.3173 90.1495 71.6514 90.1573 72.0425C90.1807 73.1921 90.1086 74.6047 90.3576 75.5956C90.4141 75.8195 90.4858 76.0603 90.685 76.2073C90.8939 76.3613 91.1889 76.3751 91.4603 76.3802C96.6115 76.4904 101.763 76.602 106.915 76.7122C107.352 76.7216 107.716 76.3742 107.727 75.9358C107.757 74.6415 107.859 73.1914 107.859 73.1914C107.857 72.8325 107.898 72.3371 107.877 71.7797C107.87 71.6078 107.737 71.4642 107.566 71.446L107.568 71.4474Z" fill="#87C4DE"/>
<path d="M61.223 61.2038C59.2653 60.9285 57.2823 60.8387 55.3075 60.9347C54.4287 60.9774 53.2455 61.456 53.4761 62.3084C53.6502 62.9523 54.4969 63.0728 55.1624 63.0632C57.5432 63.0307 59.9239 62.9982 62.3061 62.9658C62.9166 62.2323 62.1751 60.8894 61.223 61.2038Z" fill="#00435F"/>
<path d="M84.3539 67.3699C86.0706 67.3848 87.4743 66.0007 87.4892 64.2786C87.5041 62.5565 86.1246 61.1484 84.4079 61.1335C82.6912 61.1187 81.2875 62.5027 81.2726 64.2248C81.2577 65.9469 82.6373 67.355 84.3539 67.3699Z" fill="#FFAE00"/>
<path d="M107.217 67.5677C108.934 67.5826 110.338 66.1985 110.353 64.4764C110.367 62.7543 108.988 61.3462 107.271 61.3313C105.554 61.3165 104.151 62.7005 104.136 64.4226C104.121 66.1448 105.501 67.5529 107.217 67.5677Z" fill="#FFAE00"/>
<path d="M101.272 63.849C97.6786 63.7243 94.2339 63.6359 90.6956 63.7505C90.4519 63.7582 90.2746 63.8111 90.281 63.8754C90.3003 64.0613 90.2607 64.2914 90.4222 64.452C90.4595 64.4886 90.5051 64.5281 90.6315 64.553C90.7636 64.5792 90.9501 64.5822 91.1227 64.5837C95.4893 64.6355 98.7422 64.6748 100.882 64.7003C101.159 64.7027 101.386 64.6488 101.391 64.5776C101.405 64.3683 101.463 64.1327 101.463 64.1327C101.461 64.0741 101.484 63.9947 101.469 63.9038C101.464 63.8758 101.38 63.8527 101.272 63.849Z" fill="#00435F"/>
<path d="M87.4108 82.8837L102.715 83.0162C104.186 83.0289 105.534 82.5245 106.715 81.7656C106.364 86.8854 102.091 90.9081 96.9078 90.8633C92.1665 90.8222 88.2454 87.3913 87.4108 82.8837Z" fill="#00435F"/>
<path d="M37.9966 82.4562L57.1274 82.6217C56.2149 87.1142 52.235 90.4767 47.4937 90.4357C42.7523 90.3947 38.8312 86.9638 37.9966 82.4562Z" fill="#00435F"/>
<path d="M30.7127 91.7875C36.0949 91.8341 40.4959 87.4948 40.5426 82.0955C40.5893 76.6963 36.264 72.2815 30.8818 72.2349C25.4996 72.1884 21.0986 76.5276 21.0519 81.9269C21.0052 87.3262 25.3305 91.741 30.7127 91.7875Z" fill="#00435F"/>
<path d="M32.5099 79.2163C28.9994 78.1986 25.5571 80.8934 27.6927 84.4186C30.2045 87.7514 35.7981 84.6786 34.1934 80.7643C33.6939 79.6092 32.4299 78.8023 32.5113 79.2163L32.5099 79.2163Z" fill="#87C4DE"/>
<path d="M75.4556 92.1746C80.8378 92.2212 85.2388 87.8819 85.2855 82.4826C85.3322 77.0833 81.0069 72.6686 75.6247 72.622C70.2425 72.5755 65.8415 76.9147 65.7948 82.314C65.7481 87.7133 70.0734 92.128 75.4556 92.1746Z" fill="#00435F"/>
<path d="M78.7558 79.6764C75.9332 77.1872 70.5218 78.6709 71.0715 82.8806C73.0234 88.9737 83.7983 86.7166 78.7558 79.6764Z" fill="#87C4DE"/>
<path fill-rule="evenodd" clip-rule="evenodd" d="M90.2258 21.0455C89.1484 25.2803 90.7889 29.5686 94.0517 32.0673C94.4633 32.3826 94.613 32.9433 94.4252 33.4266C94.3013 33.7456 94.1954 34.0755 94.1089 34.4155C93.708 35.9914 93.7775 37.5766 94.2293 39.0226C94.4115 39.6056 94.1191 40.2552 93.572 40.5264C92.0788 41.2667 90.9516 42.5263 90.5435 44.1304C90.0546 46.0522 90.7088 48.033 92.116 49.5182C92.4478 49.8684 92.5387 50.3903 92.3774 50.845C92.3281 50.9839 92.2847 51.1263 92.2477 51.2719C92.0552 52.0283 92.0543 52.7885 92.2143 53.5012C92.3447 54.082 92.0792 54.7208 91.6094 55.0864C91.0174 55.5472 90.5684 56.2009 90.3691 56.9842C89.8926 58.8576 91.0249 60.7625 92.8982 61.2391C94.7715 61.7156 96.6765 60.5833 97.1531 58.71C97.1835 58.5904 97.2074 58.4706 97.2249 58.3511C97.3114 57.7619 97.7349 57.2136 98.3039 57.038C99.8478 56.5618 101.114 55.3166 101.542 53.6362C101.702 53.0065 101.729 52.3741 101.642 51.7687C101.574 51.3028 101.756 50.8223 102.129 50.5355C103.095 49.7938 103.805 48.7847 104.111 47.582C104.258 47.0056 104.302 46.4239 104.253 45.8518C104.204 45.273 104.544 44.6988 105.093 44.508C107.69 43.6049 109.799 41.4564 110.527 38.5922C111.193 35.9755 110.561 33.3332 109.037 31.3449C108.721 30.9332 108.708 30.3528 109.016 29.9351C109.803 28.8668 110.401 27.6316 110.749 26.2663C112.19 20.5991 108.765 14.8362 103.098 13.3945C97.4304 11.9528 91.6675 15.3782 90.2258 21.0455Z" fill="#E5E7E8"/>
</g>
<defs>
<filter id="filter0_d_854_2139" x="0" y="0" width="129" height="129" filterUnits="userSpaceOnUse" color-interpolation-filters="sRGB">
<feFlood flood-opacity="0" result="BackgroundImageFix"/>
<feColorMatrix in="SourceAlpha" type="matrix" values="0 0 0 0 0 0 0 0 0 0 0 0 0 0 0 0 0 0 127 0" result="hardAlpha"/>
<feOffset dy="4"/>
<feGaussianBlur stdDeviation="2"/>
<feComposite in2="hardAlpha" operator="out"/>
<feColorMatrix type="matrix" values="0 0 0 0 0 0 0 0 0 0 0 0 0 0 0 0 0 0 0.25 0"/>
<feBlend mode="normal" in2="BackgroundImageFix" result="effect1_dropShadow_854_2139"/>
<feBlend mode="normal" in="SourceGraphic" in2="effect1_dropShadow_854_2139" result="shape"/>
</filter>
<clipPath id="clip0_854_2139">
<rect width="121" height="121" fill="white" transform="translate(4)"/>
</clipPath>
</defs>
</svg>
