<svg width="176" height="176" viewBox="0 0 176 176" fill="none" xmlns="http://www.w3.org/2000/svg">
<path d="M119.565 65.7155C117.205 60.8907 114.788 56 108.893 56H57.3969C51.5023 56 48.2196 60.6712 46.7248 65.8618C43.8723 75.7588 44.2909 79.6415 40.5867 82.4196C38.475 84.0026 33.8638 85.5548 32.824 89.4375C31.7944 93.2836 31.5144 99.6885 33.2557 104.21C34.2459 106.784 38.2315 111.009 42.6226 111.009H128.002C132.393 111.009 135.704 106.616 136.916 104.21C139.155 99.7689 139.145 95.0201 135.952 89.0717C134.112 85.6426 131.87 85.4641 128.706 84.241C127.338 83.7129 126.3 82.6581 125.877 81.3619C123.008 72.5593 119.565 65.7155 119.565 65.7155Z" fill="#0081B7"/>
<path d="M71.0858 61.3413C70.5418 59.9017 63.7389 59.811 61.1445 59.6033C59.0956 59.4394 56.2489 59.3545 54.8912 60.2221C51.6916 62.2658 50.9216 66.409 50.1355 69.0394C49.106 72.4846 46.8441 78.986 48.0122 80.4651C48.6787 81.3107 50.0145 81.3648 51.2701 81.337C56.6733 81.2141 65.0658 81.0927 70.4703 80.9698C71.0595 80.9567 71.6924 80.9347 72.1576 80.7416C72.862 80.4475 72.8941 79.8945 72.8649 79.4162C72.6112 75.3725 72.3574 71.3304 72.1037 67.2867C71.9812 65.3366 71.8514 63.3616 71.0872 61.3427L71.0858 61.3413Z" fill="#87C4DE"/>
<path d="M75.5672 61.7217C76.2132 67.5282 76.5953 73.3625 76.7134 79.2041C76.7295 80.035 77.3478 80.7285 78.1689 80.8323C84.6366 81.6545 91.1816 81.8579 97.6857 81.4395C98.0809 81.4146 98.4951 81.3795 98.8261 81.1615C99.2476 80.8821 99.6063 80.3569 99.513 79.8595C99.0084 77.1545 97.9963 74.5899 96.8953 72.4013C95.7359 70.0986 94.7297 68.365 93.5484 66.0725C92.3672 63.7801 90.7251 61.9821 88.4414 60.7941C85.1966 59.1073 81.3582 59.8257 77.1932 59.871C76.2132 59.8813 75.4593 60.7444 75.5672 61.7202V61.7217Z" fill="#87C4DE"/>
<path d="M94.8828 62.0084C95.8147 64.3403 98.2384 67.8412 100.174 71.601C101.765 74.6923 102.869 77.9591 103.897 80.8923C104.167 81.6633 104.839 82.1797 105.597 82.2046L125.01 82.6683C125.263 82.6757 125.533 82.68 125.686 82.3202C125.788 82.0773 125.769 81.8023 125.697 81.5477C123.987 75.4764 120.988 68.8521 118.342 63.4626C117.802 62.3653 117.418 61.1028 116.479 60.3918C115.69 59.7934 114.694 59.6384 113.739 59.5155C107.29 58.6904 102.335 59.871 96.0815 59.9968C95.138 60.0158 94.508 61.0691 94.8828 62.0098V62.0084Z" fill="#87C4DE"/>
<path d="M132.98 98.8458C127.017 98.2402 121.302 97.8583 115.432 98.8005C115.028 98.8648 114.735 99.2174 114.747 99.627C114.782 100.831 114.719 102.312 114.989 103.347C115.05 103.581 115.127 103.833 115.337 103.985C115.557 104.145 115.867 104.156 116.151 104.159C121.548 104.228 126.946 104.298 132.344 104.367C132.802 104.373 133.18 104.006 133.187 103.546C133.208 102.19 133.301 100.67 133.301 100.67C133.295 100.294 133.335 99.7748 133.307 99.1911C133.298 99.0111 133.158 98.8619 132.979 98.8444L132.98 98.8458Z" fill="#87C4DE"/>
<path d="M84.3375 88.5348C82.2841 88.2641 80.206 88.1881 78.1381 88.3066C77.2179 88.3592 75.9827 88.8713 76.232 89.7622C76.4202 90.4352 77.3083 90.5537 78.0054 90.5376C80.4991 90.482 82.9929 90.4264 85.4881 90.3708C86.121 89.5969 85.332 88.1968 84.3375 88.5348Z" fill="#00435F"/>
<path d="M108.625 94.7846C110.423 94.7846 111.881 93.322 111.881 91.5178C111.881 89.7136 110.423 88.251 108.625 88.251C106.826 88.251 105.368 89.7136 105.368 91.5178C105.368 93.322 106.826 94.7846 108.625 94.7846Z" fill="#FFAE00"/>
<path d="M132.578 94.7846C134.376 94.7846 135.834 93.322 135.834 91.5178C135.834 89.7136 134.376 88.251 132.578 88.251C130.779 88.251 129.321 89.7136 129.321 91.5178C129.321 93.322 130.779 94.7846 132.578 94.7846Z" fill="#FFAE00"/>
<path d="M126.316 90.9429C122.55 90.8449 118.941 90.7834 115.235 90.9356C114.98 90.9458 114.795 91.0029 114.802 91.0702C114.824 91.2647 114.785 91.5061 114.955 91.6729C114.995 91.7109 115.043 91.7519 115.176 91.7768C115.314 91.8031 115.509 91.8046 115.69 91.8046C120.265 91.8192 123.673 91.8309 125.915 91.8382C126.205 91.8382 126.443 91.7797 126.447 91.7051C126.46 91.4856 126.518 91.2384 126.518 91.2384C126.516 91.177 126.539 91.0936 126.523 90.9985C126.517 90.9692 126.429 90.9458 126.316 90.9429Z" fill="#00435F"/>
<path d="M111.968 111.009H128.001C129.542 111.009 130.949 110.468 132.18 109.662C131.859 115.029 127.419 119.282 121.989 119.282C117.021 119.282 112.883 115.723 111.968 111.009Z" fill="#00435F"/>
<path d="M60.1982 111.009H80.2408C79.3256 115.723 75.1868 119.282 70.2195 119.282C65.2522 119.282 61.1134 115.723 60.1982 111.009Z" fill="#00435F"/>
<path d="M52.6524 120.85C58.2911 120.85 62.8622 116.265 62.8622 110.608C62.8622 104.951 58.2911 100.366 52.6524 100.366C47.0137 100.366 42.4426 104.951 42.4426 110.608C42.4426 116.265 47.0137 120.85 52.6524 120.85Z" fill="#00435F"/>
<path d="M54.4212 107.665C50.7346 106.63 47.1529 109.484 49.4221 113.158C52.0835 116.627 57.9154 113.357 56.1989 109.271C55.6652 108.065 54.3337 107.231 54.4227 107.665H54.4212Z" fill="#87C4DE"/>
<path d="M99.5277 120.85C105.166 120.85 109.737 116.265 109.737 110.608C109.737 104.951 105.166 100.366 99.5277 100.366C93.889 100.366 89.3179 104.951 89.3179 110.608C89.3179 116.265 93.889 120.85 99.5277 120.85Z" fill="#00435F"/>
<path d="M102.871 107.727C99.8921 105.145 94.2367 106.749 94.8506 111.154C96.9506 117.519 108.218 115.057 102.871 107.727Z" fill="#87C4DE"/>
</svg>
