<svg width="25" height="24" viewBox="0 0 25 24" fill="none" xmlns="http://www.w3.org/2000/svg">
<path d="M21.5504 10.4061L19.8874 5.66193C19.4338 4.36881 18.2113 3.50212 16.8377 3.5H8.16285C6.79083 3.5 5.56489 4.36858 5.11205 5.66081L3.45012 10.4061C2.56241 10.9889 2.00056 11.9975 2.00056 13.1048V18.8319C1.98507 19.4176 2.28952 19.9656 2.79566 20.263C3.30181 20.5604 3.92991 20.5604 4.43606 20.263C4.94221 19.9656 5.24665 19.4176 5.23116 18.8319V17.8142C5.23116 17.8142 9.49667 18.0249 12.5003 18.0249C15.5039 18.0249 19.7694 17.8142 19.7694 17.8142V18.8319C19.7473 19.4216 20.0502 19.9762 20.5589 20.2776C21.0676 20.579 21.7007 20.579 22.2094 20.2776C22.7181 19.9762 23.0209 19.4216 22.9989 18.8319V13.1048C22.9989 11.9975 22.437 10.9889 21.5504 10.4061ZM5.7121 8.83702L6.63689 6.19429C6.86329 5.54752 7.47489 5.11418 8.16173 5.11388H16.8377C17.5243 5.11388 18.1356 5.54761 18.3625 6.19429L19.2885 8.8359C19.3575 9.02814 19.3195 9.24243 19.1886 9.39945C19.0577 9.55646 18.8534 9.63282 18.6513 9.60025C17.0681 9.34472 15.0319 9.14859 12.5003 9.14859C9.96749 9.14859 7.9325 9.34472 6.3481 9.60025C6.14618 9.63236 5.94226 9.5558 5.81168 9.39887C5.6811 9.24194 5.64324 9.02792 5.7121 8.8359V8.83702ZM5.63456 14.7972C4.96432 14.7972 4.42098 14.2553 4.42098 13.5868C4.42098 12.9183 4.96432 12.3764 5.63456 12.3764C6.3048 12.3764 6.84814 12.9183 6.84814 13.5868C6.84814 14.2553 6.3048 14.7972 5.63456 14.7972ZM14.9229 13.9902H10.0765C9.62966 13.9902 9.26744 13.629 9.26744 13.1833C9.26744 12.7376 9.62966 12.3764 10.0765 12.3764H14.9229C15.3698 12.3764 15.732 12.7376 15.732 13.1833C15.732 13.629 15.3698 13.9902 14.9229 13.9902ZM19.3649 14.7972C18.6946 14.7972 18.1513 14.2553 18.1513 13.5868C18.1513 12.9183 18.6946 12.3764 19.3649 12.3764C20.0351 12.3764 20.5785 12.9183 20.5785 13.5868C20.5785 14.2553 20.0351 14.7972 19.3649 14.7972Z" fill="#C5CBCD"/>
</svg>
