<svg width="24" height="24" viewBox="0 0 24 24" fill="none" xmlns="http://www.w3.org/2000/svg">
<path fill-rule="evenodd" clip-rule="evenodd" d="M11.7 2C17.0035 2 21.313 6.25633 21.3987 11.5394L21.4 11.6998C21.3958 17.0553 17.0557 21.3956 11.7003 21.4C6.34284 21.4 2 17.0572 2 11.7C2 6.34284 6.34284 2 11.7 2ZM16.8228 6.58475C16.5965 6.35841 16.2295 6.35841 16.0032 6.58475L12.7192 9.86872C12.4052 9.69308 12.0505 9.60065 11.6889 9.60165C10.53 9.60485 9.59317 10.5469 9.59634 11.7058C9.59959 12.8646 10.5415 13.8015 11.7003 13.7984C12.1084 13.7981 12.5076 13.6789 12.849 13.4552C13.7727 12.8501 14.0623 11.6406 13.5381 10.6892L16.8228 7.40443C17.0492 7.17808 17.0492 6.8111 16.8228 6.58475ZM11.7 10.7577C12.2204 10.7577 12.6423 11.1796 12.6423 11.7C12.6423 12.2204 12.2204 12.6423 11.7 12.6423C11.1796 12.6423 10.7577 12.2204 10.7577 11.7C10.7577 11.1796 11.1796 10.7577 11.7 10.7577ZM11.7095 4.30483C7.65701 4.29557 4.35657 7.5403 4.28177 11.577L4.28049 11.6995L4.28003 11.898H5.4365L5.43657 11.7001C5.43699 10.5253 5.76818 9.37443 6.39222 8.37914C8.20783 5.48341 12.0056 4.58608 14.9208 6.34388L15.0156 6.40214L15.6521 5.45128C14.4721 4.70556 13.1055 4.30819 11.7095 4.30483ZM17.9791 7.76312L16.9984 8.38524C17.6015 9.33736 17.9339 10.4347 17.9616 11.5597L17.9634 11.7004L17.9638 11.898L19.1196 11.8979L19.1195 11.6999C19.1186 10.3063 18.7232 8.94141 17.9791 7.76312Z" fill="#0081B7"/>
</svg>
