<svg  xmlns="http://www.w3.org/2000/svg">
<path fill-rule="evenodd" clip-rule="evenodd" d="M146.35 36.2C146.35 22.12 134.95 10.7 120.87 10.7H117.37C103.31 10.7 91.8999 22.12 91.8999 36.2V74.1H146.35V36.2Z" fill="#F47922"/>
<path fill-rule="evenodd" clip-rule="evenodd" d="M116.7 33.73C116.7 39.2 121.33 43.63 127.05 43.63C132.78 43.63 137.41 39.2 137.41 33.73C137.41 28.26 132.79 23.83 127.06 23.83C121.34 23.83 116.7 28.26 116.7 33.73Z" fill="white"/>
<path fill-rule="evenodd" clip-rule="evenodd" d="M102.1 33.77C102.1 38.2 105.86 41.77 110.48 41.77C115.11 41.77 118.86 38.2 118.86 33.77C118.86 29.37 115.11 25.77 110.48 25.77C105.86 25.77 102.11 29.37 102.11 33.77" fill="white"/>
<path fill-rule="evenodd" clip-rule="evenodd" d="M107.94 36.26C107.94 38.3 109.67 39.96 111.8 39.96C113.93 39.96 115.66 38.3 115.66 36.26C115.66 34.23 113.93 32.58 111.8 32.58C109.67 32.58 107.94 34.23 107.94 36.26ZM125.45 38.2C125.45 40.24 127.17 41.9 129.3 41.9C131.43 41.9 133.16 40.24 133.16 38.2C133.16 36.17 131.43 34.52 129.3 34.52C127.17 34.52 125.45 36.17 125.45 38.22" fill="#231F20"/>
<path fill-rule="evenodd" clip-rule="evenodd" d="M136.82 47.65C137.22 50.33 135.74 53.23 132.95 54.7C130.17 56.17 126.95 55.76 124.95 53.9C127 54.02 129.39 53.5 131.69 52.3C133.99 51.08 135.76 49.4 136.81 47.65" fill="white"/>
<path fill-rule="evenodd" clip-rule="evenodd" d="M242.85 66.5C241.75 67.1 240.52 67.16 239.65 66.5C239.03 66 238.72 65.23 238.73 64.36C237.53 64.88 236.26 64.86 235.33 64.16C234.56 63.54 234.19 62.56 234.23 61.46C233.18 61.76 232.13 61.66 231.35 61.06C230.45 60.36 230.1 59.18 230.27 57.9C229.6 58 228.95 57.9 228.44 57.5C227.44 56.73 227.32 55.2 228.02 53.77C221.48 50.42 213.88 48.51 205.78 48.51C197.52 48.51 189.78 50.51 183.14 53.98C183.74 55.34 183.57 56.78 182.62 57.51C182.12 57.91 181.46 58.01 180.79 57.91C180.96 59.19 180.61 60.38 179.71 61.06C178.91 61.66 177.87 61.78 176.83 61.46C176.87 62.56 176.5 63.56 175.71 64.16C174.81 64.86 173.53 64.89 172.33 64.36C172.33 65.24 172.03 66.02 171.39 66.51C170.63 67.11 169.57 67.11 168.57 66.68C166.99 68.98 165.67 71.43 164.71 74.03H179.47C180.77 72.13 182.37 70.37 184.27 68.77C189.6 64.35 197.22 61.45 205.77 61.47C214.31 61.45 221.93 64.34 227.27 68.77C229.17 70.37 230.77 72.14 232.07 74.03H246.83C245.83 71.36 244.47 68.83 242.83 66.5" fill="#231F20"/>
<path fill-rule="evenodd" clip-rule="evenodd" d="M243.83 60.6C243.21 60.13 242.38 60.03 241.56 60.26C241.76 58.98 241.41 57.78 240.51 57.08C239.74 56.48 238.71 56.38 237.68 56.68C237.72 55.61 237.36 54.64 236.58 54.03C235.71 53.37 234.53 53.33 233.38 53.78V26.12C233.38 11.7 221.68 0 207.28 0H203.7C189.28 0 177.6 11.7 177.6 26.12V53.76C176.47 53.33 175.32 53.38 174.47 54.03C173.69 54.63 173.33 55.61 173.37 56.68C172.34 56.38 171.3 56.48 170.53 57.08C169.63 57.78 169.29 58.98 169.48 60.26C168.65 60.03 167.83 60.13 167.21 60.61C165.97 61.59 166.01 63.74 167.29 65.41C168.59 67.09 170.64 67.66 171.89 66.69C172.52 66.21 172.82 65.44 172.82 64.59C174.02 65.09 175.26 65.07 176.16 64.37C176.94 63.77 177.3 62.8 177.26 61.72C178.29 62.04 179.33 61.94 180.1 61.34C181 60.66 181.33 59.48 181.16 58.24C181.82 58.34 182.46 58.22 182.96 57.84C183.9 57.11 184.06 55.69 183.46 54.34C190 50.92 197.64 48.98 205.78 48.97C213.76 48.97 221.25 50.85 227.68 54.17C227.01 55.57 227.14 57.07 228.12 57.83C228.62 58.23 229.26 58.33 229.92 58.23C229.74 59.49 230.09 60.67 230.98 61.35C231.75 61.95 232.78 62.05 233.82 61.75C233.78 62.82 234.14 63.79 234.92 64.39C235.82 65.09 237.06 65.12 238.25 64.59C238.25 65.46 238.55 66.23 239.17 66.71C240.43 67.68 242.49 67.11 243.77 65.43C245.07 63.76 245.1 61.61 243.85 60.63" fill="#019EDB"/>
<path fill-rule="evenodd" clip-rule="evenodd" d="M209.28 22.48C209.28 27.91 204.88 32.32 199.45 32.32C194.03 32.32 189.63 27.92 189.63 22.48C189.63 17.04 194.03 12.64 199.45 12.64C204.88 12.64 209.28 17.04 209.28 22.48Z" fill="white"/>
<path fill-rule="evenodd" clip-rule="evenodd" d="M223.5 22.54C223.5 26.94 219.95 30.5 215.56 30.5C211.16 30.5 207.62 26.93 207.62 22.54C207.62 18.14 211.17 14.59 215.56 14.59C219.96 14.59 223.5 18.14 223.5 22.53" fill="white"/>
<path fill-rule="evenodd" clip-rule="evenodd" d="M217.85 25.54C217.85 27.57 216.209 29.21 214.189 29.21C212.159 29.21 210.52 27.58 210.52 25.55C210.52 23.53 212.159 21.89 214.179 21.89C216.179 21.89 217.829 23.53 217.829 25.55L217.85 25.54ZM202.299 27C202.299 29.02 200.649 30.67 198.639 30.67C196.609 30.67 194.979 29.02 194.979 27C194.979 24.98 196.609 23.34 198.639 23.34C200.639 23.34 202.289 24.98 202.289 27" fill="#231F20"/>
<path fill-rule="evenodd" clip-rule="evenodd" d="M188.72 35C188.32 37.67 189.79 40.55 192.56 42C195.33 43.47 198.54 43.07 200.5 41.22C198.47 41.34 196.1 40.82 193.82 39.62C191.54 38.42 189.77 36.75 188.72 35.02" fill="white"/>
<path fill-rule="evenodd" clip-rule="evenodd" d="M270.7 83.44H279.48V86.94C280.38 85.24 282.02 82.36 287.42 82.36V91.78H287.08C282.3 91.78 280.04 93.53 280.04 97.93V114.73H270.69V83.43L270.7 83.44ZM101.68 114.75H92.3299V111.35C90.63 114.41 86.7499 115.82 83.0899 115.82C73.1599 115.82 67.3599 108.02 67.3599 99.06C67.3599 88.8 74.7399 82.36 83.0799 82.36C88.2 82.36 91.0799 84.86 92.3099 86.76V83.44H101.66V114.74L101.68 114.75ZM76.7299 99.23C76.7299 102.11 78.8699 107.07 84.4999 107.07C87.8299 107.07 89.8499 105.49 91.0399 103.57C91.8199 102.33 92.2199 100.97 92.3399 99.57C92.4399 98.17 92.16 96.75 91.5399 95.45C90.5399 93.31 88.3899 91.11 84.4399 91.11C79.09 91.11 76.7399 95.63 76.7399 99.19V99.24L76.7299 99.23ZM227.1 99.12C224.67 108.99 216.1 115.54 206.02 115.54C192.95 115.54 184.05 105.1 184.05 93.82C184.05 83.16 192.27 72.22 205.91 72.22C218.99 72.22 225.97 82.32 227.11 88.85H215.94C214.76 85.75 211.61 81.57 205.86 81.57C198.71 81.57 194.7 87.83 194.7 93.77C194.7 100.07 198.98 106.17 205.9 106.17C212.55 106.17 215.26 100.57 215.93 99.12H227.09H227.1ZM164.1 106.84C159.83 106.84 156.37 103.38 156.37 99.11C156.37 94.86 159.83 91.41 164.09 91.41C168.34 91.41 171.79 94.86 171.79 99.11C171.79 103.39 168.34 106.85 164.09 106.85L164.1 106.84ZM165.33 82.37C160.53 82.37 157.45 84.52 155.43 86.87V83.45H146.63V125.19H156V111.94C157.12 113.12 159.76 115.84 165.4 115.84C174.3 115.84 180.6 108.44 180.6 99.41C180.6 92.13 176.44 82.37 165.34 82.37H165.33ZM125.5 106.84C121.25 106.84 117.8 103.38 117.8 99.11C117.8 94.86 121.25 91.41 125.5 91.41C129.77 91.41 133.23 94.86 133.23 99.11C133.23 103.39 129.77 106.85 125.51 106.85L125.5 106.84ZM126.65 82.37C121.85 82.37 118.75 84.52 116.75 86.87V83.45H107.95V125.19H117.3V111.94C118.42 113.12 121.06 115.84 126.7 115.84C135.6 115.84 141.9 108.44 141.9 99.41C141.9 92.13 137.74 82.37 126.64 82.37H126.65ZM264.5 114.75H255.14V111.35C253.44 114.41 249.57 115.82 245.9 115.82C236 115.82 230.2 108.02 230.2 99.06C230.2 88.8 237.56 82.36 245.9 82.36C251.03 82.36 253.9 84.86 255.14 86.76V83.44H264.5V114.74V114.75ZM239.54 99.23C239.54 102.11 241.68 107.07 247.31 107.07C250.64 107.07 252.67 105.49 253.86 103.57C254.66 102.33 255.04 100.97 255.16 99.57C255.26 98.17 254.98 96.75 254.36 95.45C253.36 93.31 251.21 91.11 247.26 91.11C241.91 91.11 239.56 95.63 239.56 99.19V99.24L239.54 99.23ZM33.7999 83.44H42.5299V86.76C43.5999 85.24 45.5699 82.36 51.1499 82.36C61.6899 82.36 62.7499 90.94 62.7499 95.16V114.74H53.3999V97.64C53.3999 94.21 52.6699 91.17 48.4999 91.17C43.8799 91.17 43.1499 94.49 43.1499 97.71V114.75H33.7999V83.45V83.44ZM10.6999 100.92C10.6999 105.77 13.6999 106.62 15.0399 106.62C17.5699 106.62 19.0999 104.52 19.0999 102.62C19.0999 100.42 17.3499 99.74 10.9299 97.02C7.99994 95.86 0.729943 92.93 0.729943 85.08C0.729943 76.68 8.32994 72.22 15.3299 72.22C21.0699 72.22 29.1799 75.16 29.3499 85.2H18.7999C18.5999 83.8 18.2499 81.14 14.9799 81.14C13.1199 81.14 11.3199 82.44 11.3199 84.41C11.3199 86.31 12.4499 86.83 19.9399 90.21C27.7199 93.71 29.6899 97.31 29.6899 102.17C29.6899 108.83 26.1899 115.54 15.1399 115.54C4.20994 115.54 -0.180057 109.11 0.0999434 100.94H10.6999V100.92ZM295.48 86.5H295.86C296.31 86.5 296.66 86.35 296.66 86C296.66 85.67 296.44 85.46 295.93 85.46C295.73 85.46 295.57 85.46 295.49 85.49L295.47 86.49L295.48 86.5ZM295.44 88.44H294.64L294.66 84.96C294.98 84.92 295.43 84.86 296 84.86C296.66 84.86 296.95 84.96 297.2 85.16C297.4 85.3 297.54 85.56 297.54 85.89C297.54 86.31 297.22 86.59 296.81 86.69V86.75C297.16 86.85 297.33 87.13 297.43 87.6C297.53 88.14 297.63 88.33 297.68 88.46H296.83C296.73 88.32 296.67 88.03 296.56 87.6C296.5 87.24 296.29 87.07 295.86 87.07H295.46V88.44H295.44ZM293.32 86.62C293.3 88.17 294.46 89.42 296.02 89.42C297.52 89.46 298.67 88.22 298.68 86.68C298.68 85.14 297.56 83.88 296.01 83.86C294.51 83.86 293.34 85.1 293.33 86.62H293.32ZM299.57 86.67C299.55 88.62 297.97 90.17 295.97 90.14C293.99 90.14 292.41 88.57 292.43 86.62C292.43 84.67 294.03 83.15 296.06 83.17C298.03 83.17 299.58 84.72 299.56 86.67H299.57Z" fill="#231F20"/>
<path fill-rule="evenodd" clip-rule="evenodd" d="M125.5 91.4C121.25 91.4 117.8 94.85 117.8 99.1C117.8 103.38 121.25 106.84 125.5 106.84C129.77 106.84 133.23 103.38 133.23 99.11C133.23 94.86 129.77 91.41 125.51 91.41" fill="#F47922"/>
<path fill-rule="evenodd" clip-rule="evenodd" d="M164.1 91.4C159.83 91.4 156.37 94.85 156.37 99.1C156.37 103.38 159.83 106.84 164.09 106.84C168.34 106.84 171.79 103.38 171.79 99.11C171.79 94.86 168.34 91.41 164.09 91.41" fill="#019EDB"/>
</svg>
