<svg width="24" height="24" viewBox="0 0 24 24" fill="none" xmlns="http://www.w3.org/2000/svg">
<path fill-rule="evenodd" clip-rule="evenodd" d="M18.7793 13.2034C20.9105 14.8451 22.0415 17.2899 21.9988 20.8293C21.9951 21.1371 21.7446 21.3846 21.4368 21.3846H2.56238C2.25341 21.3846 2.00239 21.1352 2.00038 20.8263C1.97689 17.2184 3.0525 14.6472 5.25248 13.1808C5.97785 12.6973 6.90988 12.6376 7.6921 13.0245C9.51633 13.9268 10.7299 14.3154 11.7321 14.3109C13.0728 14.3048 14.8752 13.8499 16.3399 13.037C17.052 12.6418 17.9753 12.6733 18.7793 13.2034ZM12 2C14.9738 2 17.3846 4.47965 17.3846 7.53846C17.3846 10.5973 14.9738 13.0769 12 13.0769C9.02616 13.0769 6.61538 10.5973 6.61538 7.53846C6.61538 4.47965 9.02616 2 12 2Z" fill="#C5CBCD"/>
</svg>
