<?xml version="1.0" encoding="UTF-8"?><svg id="Layer_2" xmlns="http://www.w3.org/2000/svg"><defs><style>.cls-1{stroke:#ffcf0d;stroke-linecap:round;stroke-miterlimit:10;stroke-width:6px;}.cls-2{fill:#ffcf0d;}</style></defs><g id="Layer_1-2" class="rotating-svg"><circle class="cls-2" cx="73.5" cy="72.51" r="37.5"/><line class="cls-1" x1="29.21" y1="90.42" x2="19.79" y2="94.6"/><line class="cls-1" x1="39.99" y1="105.03" x2="24" y2="120.01"/><line class="cls-1" x1="54.62" y1="114.86" x2="51.38" y2="124.16"/><line class="cls-1" x1="72.92" y1="118.67" x2="72.92" y2="142.01"/><line class="cls-1" x1="106.36" y1="104.92" x2="122.73" y2="121.29"/><line class="cls-1" x1="116.89" y1="89.76" x2="127" y2="94.01"/><line class="cls-1" x1="119" y1="72.01" x2="143" y2="72.01"/><line class="cls-1" x1="20" y1="50.01" x2="30.2" y2="54.4"/><line class="cls-1" x1="3" y1="72.01" x2="27" y2="72.01"/><line class="cls-1" x1="50.21" y1="18.55" x2="54.49" y2="28.79"/><line class="cls-1" x1="95.18" y1="18.43" x2="91.52" y2="28.91"/><line class="cls-1" x1="91.21" y1="115.55" x2="95.49" y2="125.79"/><line class="cls-1" x1="22.16" y1="22.48" x2="38.53" y2="38.86"/><line class="cls-1" x1="73.35" y1="3" x2="73.35" y2="26.34"/><line class="cls-1" x1="122.34" y1="23.44" x2="106.35" y2="38.42"/><line class="cls-1" x1="125.05" y1="49.84" x2="115.64" y2="54.01"/></g></svg>