<svg width="100" height="121" viewBox="0 0 100 121" fill="none" xmlns="http://www.w3.org/2000/svg">
<g clip-path="url(#clip0_1065_2937)">
<path d="M28.6765 42.2191C26.8801 43.8016 24.4386 44.7649 21.7439 44.7649C16.2854 44.7649 11.8403 40.7973 11.8403 35.8896C11.8403 32.0599 14.558 28.8034 18.3352 27.5422C17.1606 26.0057 16.4927 24.1711 16.4927 22.176C16.4927 16.9013 21.2603 12.6359 27.1334 12.6359C27.7091 12.6359 28.2618 12.6818 28.8146 12.7505C28.4922 11.8333 28.3309 10.8471 28.3309 9.81517C28.3309 4.38011 33.2367 0 39.294 0C42.8409 0 45.973 1.51342 47.9768 3.85259C49.589 2.75185 51.6157 2.10968 53.8038 2.10968C59.1471 2.10968 63.5 6.00827 63.5 10.8013C63.5 14.5623 60.8285 17.7728 57.0973 18.9653C57.1433 19.2405 57.1663 19.5386 57.1663 19.8138C57.1663 22.9328 54.4718 25.5011 51.04 25.7763C50.7406 29.3309 48.0458 32.2893 44.407 33.367C44.6142 34.1009 44.7523 34.8577 44.7523 35.6374C44.7523 40.4304 40.4225 44.3291 35.0561 44.3291C32.6377 44.3291 30.4269 43.5265 28.7225 42.2191H28.6765Z" fill="#49A14C"/>
<path d="M54.8538 39.8614C59.3172 39.8614 56.9013 32.6454 69.0028 32.4391C72.4307 32.3705 71.9017 32.5767 73.2822 33.195C80.0463 27.2389 90.6753 32.1644 90.6753 39.9531C90.6753 40.7549 90.5372 41.5108 90.2611 42.2439H90.3992C95.6907 42.2439 99.9698 45.7488 99.9698 50.0556C99.9698 54.3623 95.944 57.6381 90.9054 57.8672C90.9514 58.165 90.9743 58.4629 90.9743 58.7607C90.9743 63.0674 86.6951 66.5723 81.4036 66.5723C79.2409 66.5723 77.2394 65.9765 75.6287 64.9915C73.397 67.1677 70.0841 68.5424 66.3339 68.5424C59.6391 68.5424 54.2324 64.1212 54.2324 58.6689C54.2324 58.0047 54.3245 57.3402 54.4625 56.6989C50.0682 55.9887 46.7554 53.0794 46.7554 49.0476C46.7554 45.0158 50.3904 39.9073 54.8538 39.9073V39.8614Z" fill="#49A14C"/>
<path d="M72.1608 22.3145C72.4095 21.5546 72.5428 20.7565 72.5428 19.9331C72.5428 14.8324 67.4588 10.6976 61.1873 10.6976C54.9159 10.6976 49.8318 14.8324 49.8318 19.9331C49.8318 20.3485 49.8661 20.7574 49.9314 21.1582C44.5745 21.9003 40.4961 25.6933 40.4961 30.2615C40.4961 35.3622 45.5802 39.497 51.8516 39.497C54.6132 39.497 57.1443 38.695 59.1127 37.362C61.081 38.695 63.6121 39.497 66.3737 39.497C72.6452 39.497 77.7292 35.3622 77.7292 30.2615C77.7292 26.8801 75.4944 23.9237 72.1608 22.3145Z" fill="#49A14C"/>
<path d="M39.3521 31.3787C40.8347 31.7249 42.0625 32.5782 42.8501 33.6856C44.4022 32.6013 46.4871 32.1399 48.5722 32.6244C49.6841 32.8781 50.657 33.3626 51.4909 34.0085C52.5102 33.7779 53.622 33.7779 54.7109 34.0085C58.2785 34.8158 60.6181 38.022 60.178 41.3204C62.7493 42.7503 64.1857 45.5877 63.5369 48.4248C62.9579 50.939 60.8729 52.7612 58.3248 53.2456C58.8113 54.4219 58.9732 55.7137 58.6722 57.0054C57.8846 60.4883 54.1782 62.6337 50.4254 61.7803C48.9196 61.4342 47.6223 60.6729 46.6725 59.6349C45.7458 62.9564 42.1552 64.9632 38.4951 64.1329C36.549 63.6945 34.9507 62.5182 33.9777 61.019C32.6111 63.118 29.9007 64.2481 27.1439 63.6254C26.0551 63.3717 25.1053 62.8874 24.3177 62.2415C22.9278 64.2251 20.2869 65.2631 17.6229 64.6635C15.399 64.156 13.7079 62.6337 12.9667 60.7654C11.3913 62.4029 8.91272 63.1871 6.41081 62.6105C2.72745 61.7802 0.364539 58.3203 1.15221 54.9063C1.68498 52.5537 3.58457 50.8237 5.9243 50.247C5.80849 49.5781 5.80849 48.9092 5.94748 48.2172C6.59606 45.3801 9.58448 43.65 12.6423 44.3421C13.1751 44.4573 13.6848 44.665 14.148 44.8957C14.1018 44.3421 14.148 43.7653 14.2871 43.1887C15.0515 39.8903 18.5495 37.8605 22.1171 38.6678C22.7193 38.8063 23.2984 39.0138 23.8312 39.2906C23.8312 39.0138 23.8775 38.737 23.9471 38.4601C24.5957 35.6229 27.5841 33.893 30.642 34.5851C31.3833 34.7465 32.0551 35.0465 32.6342 35.4387C32.6342 35.3693 32.6574 35.3002 32.6804 35.2311C33.3292 32.3937 36.3174 30.6639 39.3753 31.3556L39.3521 31.3787Z" fill="#49A14C"/>
<path d="M19.8298 34.5397C21.9718 34.5397 24.0906 36.2596 23.9523 38.4384C21.0045 38.2319 20.5899 37.1771 19.8298 34.5397Z" fill="#AAD196"/>
<path d="M23.7485 26.7416C24.9923 27.7277 26.996 27.7507 27.9633 26.4207C26.1669 25.1822 25.4299 25.5951 23.7485 26.7416Z" fill="#AAD196"/>
<path d="M28.5378 19.8356C27.7778 21.2344 28.1464 23.2067 29.6205 23.8946C30.5186 21.9226 29.9659 21.2574 28.5378 19.8356Z" fill="#AAD196"/>
<path d="M23.6116 21.8302C24.2103 23.8941 26.4444 25.4306 28.5172 24.6967C27.5038 21.9447 26.3523 21.8302 23.6116 21.8302Z" fill="#AAD196"/>
<path d="M35.9591 30.4939C39.1099 30.4939 41.6681 33.0411 41.6681 36.1784C41.6681 39.3157 39.1099 41.8629 35.9591 41.8629C32.8083 41.8629 30.2502 39.3157 30.2502 36.1784C30.2502 33.0411 32.8083 30.4939 35.9591 30.4939ZM51.1831 17.3325C56.5195 17.3325 60.8523 21.6467 60.8523 26.9603C60.8523 32.2739 56.5195 36.5881 51.1831 36.5881C45.8466 36.5881 41.5138 32.2739 41.5138 26.9603C41.5138 21.6467 45.8466 17.3325 51.1831 17.3325ZM41.9253 19.8931C47.6591 19.8931 52.3146 24.5286 52.3146 30.2379C52.3146 35.9471 47.6591 40.5826 41.9253 40.5826C36.1914 40.5826 31.536 35.9471 31.536 30.2379C31.536 24.5286 36.1914 19.8931 41.9253 19.8931ZM59.7208 22.8122C65.6534 22.8122 70.4701 27.6083 70.4701 33.5154C70.4701 39.4225 65.6534 44.2186 59.7208 44.2186C53.7882 44.2186 48.9715 39.4225 48.9715 33.5154C48.9715 27.6083 53.7882 22.8122 59.7208 22.8122ZM36.1649 33.7203C42.0123 33.7203 46.7599 38.4475 46.7599 44.2699C46.7599 50.0922 42.0123 54.8195 36.1649 54.8195C30.3175 54.8195 25.5698 50.0922 25.5698 44.2699C25.5698 38.4475 30.3175 33.7203 36.1649 33.7203ZM64.2468 38.022C69.3562 38.022 73.5046 42.1527 73.5046 47.2401C73.5046 52.3276 69.3562 56.4582 64.2468 56.4582C59.1375 56.4582 54.989 52.3276 54.989 47.2401C54.989 42.1527 59.1375 38.022 64.2468 38.022ZM57.4578 46.9841C61.9143 46.9841 65.5326 50.5869 65.5326 55.0243C65.5326 59.4617 61.9143 63.0645 57.4578 63.0645C53.0013 63.0645 49.3829 59.4617 49.3829 55.0243C49.3829 50.5869 53.0013 46.9841 57.4578 46.9841ZM41.6167 43.809C47.2086 43.809 51.7488 48.3297 51.7488 53.8976C51.7488 59.4656 47.2086 63.9863 41.6167 63.9863C36.0247 63.9863 31.4845 59.4656 31.4845 53.8976C31.4845 48.3297 36.0247 43.809 41.6167 43.809ZM50.463 23.7852C61.0224 23.7852 69.5958 32.3218 69.5958 42.8359C69.5958 53.35 61.0224 61.8867 50.463 61.8867C39.9036 61.8867 31.3302 53.35 31.3302 42.8359C31.3302 32.3218 39.9036 23.7852 50.463 23.7852Z" fill="#49A14D"/>
<path d="M45.9032 45.7448H50.1883H50.721H55.0062L58.2027 121.015H50.721H50.1883H42.6838L45.9032 45.7448Z" fill="#67553D"/>
<path d="M73.026 55.4112L55.075 74.2076L55.3297 68.3727C60.8888 63.714 66.4478 59.0553 72.0068 54.3964C72.8869 53.5432 73.7209 54.6963 73.026 55.4112Z" fill="#67553D"/>
<path d="M29.1342 64.1516C35.1102 68.234 41.0861 72.3392 47.062 76.4213C46.5757 74.53 46.066 72.662 45.5796 70.7709C40.3679 68.1646 35.1334 65.5586 29.9216 62.9295C29.1804 62.5604 28.115 63.3905 29.1342 64.1286V64.1516Z" fill="#67553D"/>
<path d="M37.7749 52.5987C39.9065 52.2298 42.3157 53.5446 42.5475 55.7362C39.6051 56.0359 39.0028 55.067 37.7749 52.5987Z" fill="#AAD196"/>
<path d="M30.8188 42.9336C29.0581 44.1793 28.3169 46.809 29.6837 48.516C31.9773 46.6474 31.6993 45.5402 30.8188 42.9336Z" fill="#AAD196"/>
<path d="M26.1647 44.9142C25.7942 46.4597 26.6744 48.282 28.2731 48.5591C28.6205 46.4136 27.9254 45.9292 26.1647 44.9142Z" fill="#AAD196"/>
<path d="M49.8387 13.5411C51.7543 13.9109 53.346 14.9722 54.4389 16.4083C55.6263 11.5249 60.4279 8.37582 65.3538 9.32678C70.2796 10.2779 73.735 15.2565 72.7356 20.3884C72.6339 20.9107 72.4912 21.4014 72.3253 21.8879C72.8809 21.8302 73.4458 21.8449 74.0161 21.955C77.0946 22.5495 79.0895 25.5498 78.4838 28.6607C78.2673 29.7735 77.7489 30.7335 77.0291 31.5136C79.2352 32.4578 80.5616 34.8815 80.0796 37.3564C79.5226 40.2177 76.7682 42.0889 73.9403 41.5432C73.2334 41.4066 72.5758 41.1383 72.013 40.747C71.9821 40.906 71.9695 41.092 71.9385 41.2508C71.3815 44.1121 68.6271 45.9836 65.7992 45.4375C65.5941 45.3978 65.3887 45.3582 65.1924 45.2733C64.3736 47.7775 61.8452 49.3391 59.1998 48.8285C56.9875 48.4013 55.3918 46.6326 55.0424 44.5388C55.0246 44.6298 55.0025 44.743 54.9848 44.834C54.3746 47.9675 51.3708 50.0265 48.2694 49.4278C46.5817 49.1019 45.2224 48.062 44.4263 46.683C43.3181 47.2702 42.0211 47.491 40.6983 47.2357C37.688 46.6544 35.7122 43.7991 36.1318 40.7937C36.0633 40.7805 35.9949 40.7673 35.9264 40.7541C33.7144 40.3271 32.2666 38.1626 32.7043 35.9146C32.996 34.416 34.0736 33.2574 35.4193 32.7867C34.4141 31.5089 33.9394 29.815 34.2798 28.0666C34.8899 24.933 37.8938 22.8741 40.9954 23.473C41.0637 23.4861 41.1093 23.495 41.1778 23.5081C40.7743 22.2992 40.6798 20.9616 40.945 19.5992C41.7543 15.4438 45.7656 12.7076 49.8704 13.5001L49.8387 13.5411Z" fill="#5EB35C"/>
<path d="M61.5361 15.3325C62.0496 17.4343 60.857 19.9136 58.6771 20.2938C58.1815 17.3709 59.1159 16.703 61.5361 15.3325Z" fill="#AAD196"/>
<path d="M54.3371 31.6326C56.315 32.5327 57.5414 34.9845 56.5005 36.9275C53.8865 35.5275 53.9478 34.3613 54.3371 31.6326Z" fill="#AAD196"/>
<path d="M44.2585 24.5913C44.3596 26.26 45.7811 27.8305 47.4975 27.6434C47.2062 25.3724 46.3618 25.0916 44.2585 24.5913Z" fill="#AAD196"/>
<path d="M42.6636 28.8804C43.7371 30.1714 45.8352 30.5767 47.081 29.4036C45.486 27.7526 44.6267 28.0343 42.6636 28.8804Z" fill="#AAD196"/>
<path d="M43.1108 43.5735C45.2883 43.5698 47.4241 41.838 47.2835 39.6432C44.3326 39.8512 43.8878 40.9197 43.1108 43.5735Z" fill="#AAD196"/>
<path d="M42.4321 36.3759C43.132 37.6421 44.8171 38.3444 46.0792 37.5748C45.0078 35.9073 44.2566 35.9977 42.4321 36.3759Z" fill="#AAD196"/>
<path d="M49.1715 46.0154C50.7802 44.5591 51.2109 41.862 49.6206 40.3062C47.574 42.432 47.954 43.5187 49.1715 46.0154Z" fill="#AAD196"/>
<path d="M69.7954 26.3737C68.1304 26.0523 66.2549 27.0567 66.0417 28.7591C68.3303 29.036 68.8089 28.2801 69.7954 26.3737Z" fill="#AAD196"/>
<path d="M67.7441 37.6423C67.9941 35.994 66.9353 34.1404 65.2168 33.9735C65.0298 36.27 65.7933 36.7236 67.7441 37.6423Z" fill="#AAD196"/>
<path d="M74.1104 31.5433C72.6159 29.9826 69.8984 29.5992 68.3816 31.1914C70.5711 33.1927 71.644 32.787 74.1104 31.5433Z" fill="#AAD196"/>
<path d="M72.075 36.7789C71.8801 34.6207 69.9687 32.6497 67.7976 32.9844C68.2704 35.903 69.3656 36.2323 72.075 36.7789Z" fill="#AAD196"/>
<path d="M27.0724 51.1047C29.1798 51.1047 30.9395 52.4189 31.4489 54.2176C31.7502 54.1714 32.028 54.1252 32.3521 54.1252C34.7141 54.1252 36.6362 55.9007 36.6362 58.1142C36.6362 59.9818 35.2466 61.5729 33.3479 61.9879C33.5795 62.4951 33.7183 63.0717 33.7183 63.6711C33.7183 65.9998 31.6805 67.8906 29.1798 67.8906C28.1375 67.8906 27.1652 67.5677 26.401 66.9913C25.4747 67.7522 24.2704 68.2134 22.9506 68.2134C20.0791 68.2134 17.7403 66.0459 17.7403 63.3714C17.7403 62.4259 18.0414 61.5499 18.5276 60.812C17.4393 60.1202 16.6982 58.9443 16.6982 57.63C16.6982 55.5088 18.5508 53.7794 20.8432 53.7794C21.4917 53.7794 22.1169 53.9177 22.6727 54.1714C23.2053 52.3959 24.9652 51.1047 27.0261 51.1047H27.0724Z" fill="#5EB35C"/>
<path d="M23.0142 60.1161C23.8478 61.7761 26.0012 62.7446 27.6455 61.7992C26.3487 59.6089 25.3529 59.701 23.0142 60.1161Z" fill="#AAD196"/>
<path d="M26.9289 57.6271C26.512 58.9413 27.1373 60.5785 28.5035 60.9243C28.9667 59.1028 28.3877 58.6185 26.9289 57.6271Z" fill="#AAD196"/>
<path d="M73.1012 45.0366C75.1152 45.0366 76.8245 46.2489 77.4803 47.9745C77.9721 47.7412 78.5341 47.6014 79.1194 47.6014C81.1567 47.6014 82.7961 49.187 82.7961 51.1224C82.7961 52.0549 82.4213 52.9178 81.7891 53.5472C82.7256 54.4099 83.2876 55.6225 83.2876 56.9748C83.2876 59.633 81.0632 61.778 78.2998 61.778C76.4966 61.778 74.9277 60.8689 74.0614 59.5164C73.2651 60.0293 72.3051 60.3324 71.2747 60.3324C68.5114 60.3324 66.2866 58.1873 66.2866 55.5292C66.2866 53.7339 67.317 52.1716 68.8392 51.3553C68.5816 50.7957 68.4412 50.1896 68.4412 49.5367C68.4412 47.0652 70.5254 45.0366 73.1247 45.0366H73.1012Z" fill="#5EB35C"/>
</g>
<defs>
<clipPath id="clip0_1065_2937">
<rect width="100" height="121" fill="white"/>
</clipPath>
</defs>
</svg>
